<?xml version="1.0" standalone="no"?>
<!DOCTYPE svg PUBLIC "-//W3C//DTD SVG 20010904//EN"
 "http://www.w3.org/TR/2001/REC-SVG-20010904/DTD/svg10.dtd">
<svg version="1.0" xmlns="http://www.w3.org/2000/svg"
 width="1024.000000pt" height="1024.000000pt" viewBox="0 0 1024.000000 1024.000000"
 preserveAspectRatio="xMidYMid meet">

<g transform="translate(0.000000,1024.000000) scale(0.100000,-0.100000)"
fill="#000000" stroke="none">
<path d="M10130 9479 c-52 -26 -223 -109 -380 -184 -555 -264 -608 -293 -680
-365 -89 -89 -105 -134 -105 -300 0 -91 5 -141 18 -183 21 -68 16 -92 -24
-112 -34 -18 -61 -57 -61 -88 0 -24 45 -96 92 -147 16 -18 30 -36 30 -40 0 -5
14 -21 30 -37 17 -15 30 -34 30 -40 0 -7 9 -22 20 -33 10 -10 46 -72 78 -137
94 -185 105 -207 129 -230 13 -12 23 -26 23 -31 0 -10 83 -92 201 -198 42 -38
80 -76 85 -85 11 -19 182 -172 249 -223 28 -21 82 -69 120 -107 81 -79 115
-109 125 -109 4 0 31 -25 61 -55 29 -30 57 -55 61 -55 5 0 8 632 8 1405 0 773
-4 1405 -8 1404 -4 0 -50 -23 -102 -50z m-216 -1719 c42 -44 74 -85 71 -90 -9
-14 -56 22 -50 38 3 7 0 10 -5 7 -13 -8 -81 67 -75 82 2 7 1 12 -3 10 -4 -1
-8 2 -9 7 -1 5 -7 13 -15 17 -7 5 -8 9 -2 9 6 0 46 -36 88 -80z"/>
<path d="M6207 9461 c-133 -26 -228 -61 -517 -191 -63 -28 -142 -63 -175 -76
-33 -14 -163 -73 -290 -130 -313 -143 -312 -142 -728 -329 -202 -91 -370 -165
-372 -165 -2 0 -72 -32 -157 -71 -84 -39 -227 -104 -318 -144 -91 -40 -226
-101 -300 -135 -74 -34 -216 -97 -315 -140 -99 -43 -220 -97 -270 -120 -49
-23 -151 -68 -225 -100 -174 -74 -264 -114 -485 -212 -99 -44 -220 -98 -270
-120 -49 -22 -128 -57 -175 -78 -47 -21 -179 -81 -295 -133 -115 -52 -289
-129 -385 -170 -287 -123 -458 -202 -742 -340 l-188 -91 0 -2491 0 -2490 23
-10 c13 -6 21 -17 19 -28 -2 -12 4 -17 18 -17 12 0 19 -4 16 -9 -14 -22 7 -41
45 -41 28 0 39 -4 39 -15 0 -9 9 -15 23 -15 28 -1 57 -22 57 -43 0 -9 18 -34
40 -56 22 -22 40 -44 40 -50 0 -6 13 -11 30 -11 20 0 28 -4 24 -13 -3 -8 2
-20 11 -27 12 -10 13 -16 4 -26 -8 -10 -8 -14 0 -14 6 0 11 -7 11 -15 0 -20
47 -65 70 -65 13 0 23 -14 35 -55 13 -41 23 -55 36 -55 14 0 19 -7 19 -25 0
-16 6 -25 15 -25 18 0 19 -12 3 -28 -9 -9 -8 -12 5 -12 9 0 24 -11 33 -25 23
-35 96 -87 104 -74 4 6 11 4 20 -6 11 -13 8 -15 -16 -15 l-29 -1 37 -19 c20
-11 39 -28 43 -39 8 -25 33 -35 31 -13 0 9 6 17 14 17 12 0 36 -50 58 -120 7
-26 47 -65 66 -65 10 0 16 -12 18 -37 2 -30 8 -38 27 -43 17 -4 27 -16 36 -45
16 -54 56 -115 77 -115 10 0 18 -9 20 -22 2 -13 12 -27 24 -32 12 -5 28 -30
38 -58 14 -41 20 -47 32 -37 12 10 18 3 37 -39 12 -28 30 -53 39 -55 10 -3 22
-16 27 -29 8 -22 32 -39 73 -52 10 -3 20 -22 25 -48 6 -30 14 -42 24 -40 9 1
24 -13 35 -33 l19 -35 2545 3 c1472 1 2555 6 2569 11 18 7 22 6 17 -2 -5 -8 5
-12 33 -12 21 0 41 4 43 8 2 4 20 18 41 31 20 12 37 27 37 32 0 5 7 9 15 9 18
0 132 57 140 70 4 6 24 10 46 10 24 0 38 4 34 10 -3 6 -2 10 4 10 21 0 77 46
73 59 -3 8 0 11 5 8 5 -3 17 3 26 14 9 10 27 19 40 19 13 0 34 9 47 20 13 11
27 20 32 20 4 0 7 5 6 12 -2 6 5 14 14 16 14 3 16 -1 11 -15 -6 -16 -5 -16 10
-4 17 13 25 47 9 37 -4 -2 -14 -1 -22 5 -12 7 -10 9 7 9 12 0 26 6 30 14 4 8
42 32 84 54 42 22 95 52 118 66 22 14 47 26 54 26 8 0 25 8 38 19 13 10 49 31
79 46 30 15 67 36 82 46 14 11 32 19 38 19 17 0 134 53 138 62 2 4 9 8 16 8 6
0 28 14 49 31 20 16 46 31 57 32 11 1 20 5 20 9 0 4 4 8 9 8 22 0 170 79 252
135 24 16 67 41 94 56 28 14 68 35 90 47 22 12 65 34 95 47 56 26 177 90 262
138 26 15 53 27 60 27 7 0 18 8 25 19 6 10 24 21 38 25 15 4 77 37 138 75 62
37 175 100 252 140 77 41 151 81 165 91 40 27 250 130 266 130 9 0 13 4 10 9
-3 4 20 21 52 37 31 16 59 32 62 36 5 7 50 27 158 73 23 10 42 22 42 27 0 4 3
7 8 6 4 -2 17 7 30 20 13 13 30 21 38 18 12 -5 14 210 14 1601 -1 1483 -2
1609 -17 1626 -16 17 -16 17 0 11 16 -6 17 2 15 70 -2 42 -6 76 -9 76 -11 0
-20 -31 -13 -43 5 -9 4 -9 -5 -1 -10 9 -10 17 -2 32 6 10 7 22 3 26 -3 4 1 4
11 0 13 -5 17 -1 17 19 0 14 -7 27 -15 31 -15 5 -22 -9 -7 -17 4 -2 1 -2 -7 0
-8 2 -18 -2 -23 -9 -4 -7 -8 -8 -8 -2 0 5 14 23 30 39 17 16 30 36 30 44 0 11
-8 6 -25 -14 l-25 -30 16 32 c8 18 19 35 25 38 5 4 9 11 9 16 0 6 -4 7 -10 4
-5 -3 -10 1 -10 10 0 9 4 14 8 11 4 -2 9 5 9 16 2 20 1 20 -14 5 -19 -18 -26
-59 -9 -51 6 3 0 -3 -14 -14 -14 -12 -27 -18 -30 -15 -3 3 1 8 8 10 6 3 12 12
12 20 0 14 -3 14 -20 -2 -11 -10 -17 -22 -14 -27 4 -6 -3 -5 -15 1 -11 7 -21
14 -21 17 0 3 5 2 10 -1 12 -7 40 12 40 27 0 5 -8 5 -18 -1 -10 -5 -24 -6 -31
-1 -10 6 -7 12 13 25 25 17 38 44 14 28 -7 -4 -5 5 5 20 16 24 11 38 -7 20
-10 -10 -36 -12 -36 -3 0 5 5 12 10 15 6 3 10 11 10 17 0 6 -10 3 -22 -8 -17
-14 -19 -15 -10 -2 12 14 10 19 -15 31 -24 13 -29 13 -41 -2 -11 -14 -12 -13
-2 7 6 12 17 22 25 22 20 0 39 37 22 43 -6 2 -9 8 -5 12 4 4 13 3 20 -2 26
-20 44 -21 44 -2 0 13 -3 15 -13 7 -21 -17 -15 4 9 31 19 21 17 20 -10 -3 -17
-17 -32 -24 -32 -18 0 9 -5 9 -20 0 -13 -8 -16 -16 -10 -22 15 -15 12 -24 -7
-22 -11 0 -25 -13 -35 -34 -10 -19 -18 -27 -18 -18 0 9 12 30 26 47 14 17 23
31 20 31 -4 0 -2 8 3 18 8 15 6 18 -7 17 -10 0 -23 -5 -30 -9 -11 -7 -11 -4
-1 12 7 11 19 18 28 15 13 -4 13 -2 -1 10 -10 8 -15 17 -11 21 4 4 -1 4 -12 1
-14 -5 -11 1 10 20 17 14 22 23 13 19 -13 -4 -18 -1 -18 11 0 14 -5 12 -21 -9
-16 -21 -24 -24 -30 -15 -4 8 -11 10 -16 6 -4 -5 -1 -12 6 -17 12 -7 11 -11
-3 -25 -20 -21 -34 -12 -16 10 15 18 0 20 -19 3 -12 -11 -13 -10 -7 6 5 14 2
17 -9 12 -13 -4 -14 -2 -5 14 12 23 7 25 -23 8 -20 -10 -21 -10 -8 6 8 10 23
15 33 13 10 -3 18 -1 18 4 0 5 5 9 11 9 5 0 7 -5 3 -11 -4 -7 2 -6 17 2 22 11
23 11 10 -4 -9 -11 -10 -17 -2 -17 6 0 14 0 19 0 4 0 7 3 7 8 0 4 4 13 8 19 6
9 3 11 -9 6 -12 -4 -15 -3 -10 5 5 8 1 10 -11 5 -14 -5 -13 0 7 23 14 15 18
23 9 16 -9 -6 -19 -10 -22 -7 -4 3 -5 2 -2 -2 6 -8 -14 -33 -27 -33 -5 0 -5 8
1 18 6 11 6 24 0 33 -6 10 -9 10 -9 2 0 -7 -7 -13 -16 -13 -9 0 -12 5 -8 13 5
8 2 7 -10 -2 -12 -10 -14 -16 -5 -21 6 -4 7 -10 3 -12 -15 -9 -59 -2 -56 8 2
5 9 8 15 7 7 -2 19 7 26 20 12 19 12 20 0 11 -27 -23 -101 1 -98 30 3 24 -1
37 -11 31 -6 -3 -7 1 -4 9 3 9 1 16 -6 16 -7 0 -5 6 4 16 9 8 14 20 11 25 -8
12 2 12 24 0 13 -7 18 -6 18 4 0 8 -4 12 -9 9 -4 -3 -13 -2 -19 2 -8 4 -7 9 2
15 10 6 10 9 2 9 -7 0 -20 -14 -28 -31 -9 -17 -19 -28 -22 -25 -3 3 4 21 16
41 25 44 26 52 4 34 -15 -12 -16 -12 -10 4 3 9 2 17 -4 17 -6 0 -7 6 -3 13 4
6 4 9 -1 5 -4 -4 -13 -4 -19 2 -8 6 -16 2 -24 -11 -7 -11 -8 -19 -2 -19 5 0
10 5 10 10 0 6 5 10 10 10 7 0 7 -6 1 -19 -6 -10 -7 -21 -4 -25 3 -3 3 -6 -2
-6 -4 0 -14 8 -21 18 -12 16 -13 15 -14 -5 0 -12 -4 -25 -10 -28 -14 -8 -13
-1 5 42 17 41 18 43 7 43 -5 0 -14 -10 -20 -22 -6 -13 -11 -17 -11 -10 -1 7 4
22 9 33 9 15 7 19 -5 19 -9 0 -13 5 -10 10 3 6 2 10 -3 10 -5 0 -15 -14 -23
-32 -7 -17 -15 -26 -17 -20 -2 8 -9 9 -22 2 -27 -15 -33 4 -9 26 19 17 49 65
49 79 0 13 -18 3 -29 -17 -9 -18 -10 -18 -5 -3 3 11 7 25 8 32 1 7 9 20 17 31
7 10 1 5 -15 -12 -37 -38 -69 -44 -53 -9 7 15 14 20 21 13 8 -6 16 -2 24 10
10 17 10 19 -5 17 -10 -1 -24 -6 -30 -10 -12 -8 -17 5 -16 41 1 10 -2 10 -13
1 -12 -10 -13 -8 -7 7 6 17 5 17 -10 5 -15 -12 -17 -12 -11 3 4 11 2 15 -8 11
-7 -3 -14 -14 -14 -24 0 -11 6 -17 13 -14 7 3 13 0 13 -6 0 -6 6 -11 14 -11 8
0 17 -7 20 -16 7 -17 -9 -44 -26 -44 -6 0 -5 7 2 15 17 20 5 32 -15 15 -9 -7
-18 -10 -22 -7 -3 4 2 9 11 13 9 3 16 10 16 15 0 15 -22 10 -37 -8 -13 -16
-13 -16 -3 5 8 17 8 22 -2 22 -9 0 -9 3 2 10 8 5 11 12 7 16 -4 4 -2 13 5 21
6 7 8 16 5 19 -9 9 -39 -24 -32 -35 3 -5 1 -13 -5 -16 -6 -4 -10 -3 -9 2 5 26
-1 35 -16 23 -15 -13 -35 -6 -35 13 0 8 4 7 9 -2 8 -12 12 -12 25 -2 9 8 16
10 16 6 0 -4 7 -2 15 5 21 18 19 35 -2 19 -16 -13 -17 -12 -4 4 10 13 17 15
27 6 16 -13 30 -5 45 24 l10 22 -20 -22 c-27 -32 -37 -29 -16 5 18 27 18 27
-2 10 -22 -20 -43 -23 -43 -7 0 5 6 7 13 3 6 -4 4 2 -7 14 -13 15 -16 26 -9
34 15 20 24 50 13 43 -6 -3 -10 2 -11 12 0 10 -3 13 -6 6 -2 -7 -12 -13 -21
-13 -14 0 -14 -2 -3 -9 12 -8 11 -12 -4 -28 -17 -16 -18 -16 -12 0 3 9 2 17
-2 17 -5 0 -11 -5 -13 -11 -2 -5 -16 -12 -30 -13 -15 -2 -25 1 -22 6 3 5 12 7
20 4 8 -3 14 -1 14 5 0 15 -33 24 -38 11 -2 -7 -8 -12 -14 -12 -6 0 -5 6 2 15
18 21 6 30 -14 10 -19 -20 -20 -15 -3 18 l13 26 29 -25 c15 -13 32 -24 37 -24
15 0 8 19 -13 34 -14 9 -18 19 -13 28 6 11 5 11 -8 0 -13 -10 -17 -10 -20 0
-3 9 -16 4 -44 -16 -23 -18 -32 -21 -21 -10 9 12 14 24 10 29 -5 4 -3 5 3 2 7
-4 10 2 9 18 -2 17 1 22 11 18 8 -3 14 0 14 6 0 10 -14 15 -34 12 -5 -1 -6 6
-2 16 4 12 0 10 -13 -6 -10 -14 -26 -26 -36 -27 -15 -2 -15 0 2 19 11 12 23
29 27 37 4 8 -2 4 -13 -9 -23 -25 -27 -21 -11 10 8 15 7 19 -5 19 -9 0 -15 -9
-15 -21 0 -18 -2 -19 -15 -5 -18 18 -19 26 -2 26 6 0 17 12 24 26 12 26 12 26
-7 9 -22 -20 -28 -8 -7 15 6 8 2 6 -10 -4 -13 -10 -20 -22 -18 -27 3 -4 1 -10
-5 -14 -5 -3 -17 -21 -26 -40 -9 -19 -20 -32 -26 -29 -5 3 -1 12 9 20 10 7 15
14 11 14 -4 0 5 21 21 48 l27 47 -28 1 c-15 1 -28 -3 -28 -7 0 -5 5 -9 10 -9
6 0 10 -5 10 -12 0 -8 -6 -6 -17 5 -15 15 -15 18 -1 34 23 27 33 47 20 39 -7
-4 -13 -1 -13 6 -3 33 -4 38 -11 38 -5 0 -16 0 -26 0 -11 0 -24 -12 -31 -26
-6 -15 -14 -24 -18 -21 -3 4 0 13 7 22 7 8 9 15 5 15 -4 0 -1 8 6 18 13 15 12
16 -3 3 -20 -15 -23 -9 -8 19 16 29 -6 34 -32 8 -21 -21 -64 -35 -53 -18 2 4
9 19 15 34 5 15 15 24 20 21 6 -4 4 -12 -5 -22 -9 -8 -13 -18 -10 -21 9 -10
26 13 31 44 3 22 2 25 -6 14 -9 -13 -10 -13 -10 0 0 9 -3 11 -8 5 -9 -13 -32
-17 -32 -6 0 5 7 14 15 21 8 7 13 16 10 19 -9 16 -48 4 -66 -20 -11 -14 -19
-18 -19 -10 0 8 -6 11 -17 6 -15 -5 -16 -4 -5 6 17 18 15 29 -5 23 -15 -5 -16
-4 -3 5 13 10 13 12 0 21 -20 13 -26 13 -44 -5 -8 -8 -18 -15 -23 -15 -4 1 2
9 15 19 12 11 21 25 19 33 -2 7 -2 10 0 6 9 -17 24 -7 18 11 -3 11 -1 22 5 26
5 3 14 14 19 23 7 14 5 18 -8 18 -10 0 -18 -7 -17 -15 1 -7 -5 -16 -11 -18 -7
-3 -13 0 -13 7 0 6 5 8 13 4 9 -6 9 -5 0 8 -7 8 -11 18 -8 21 3 4 2 5 -2 2 -3
-3 -14 2 -24 11 -13 12 -22 13 -38 5 -19 -11 -19 -10 -5 16 18 35 18 47 0 31
-8 -7 -13 -15 -11 -16 2 -2 -5 -19 -16 -38 -21 -39 -25 -58 -6 -33 17 22 58
44 51 27 -8 -19 -64 -61 -64 -48 0 6 -4 8 -10 5 -15 -9 -12 2 6 31 22 33 10
44 -16 14 -11 -13 -20 -18 -20 -13 0 6 7 16 15 23 13 10 13 15 3 21 -7 4 -9
11 -5 16 5 4 12 1 17 -7 6 -8 10 -10 10 -5 0 6 5 3 11 -5 9 -13 10 -13 6 0 -2
8 2 22 9 31 12 14 11 15 -6 14 -11 -1 -23 -4 -26 -8 -4 -4 -11 -7 -16 -7 -5 0
4 17 19 38 15 20 20 31 10 23 -20 -15 -23 -2 -4 19 10 12 9 12 -5 1 -23 -17
-23 -4 -1 23 10 12 4 9 -13 -7 -17 -15 -33 -24 -37 -21 -4 4 -13 1 -21 -5 -10
-8 -16 -9 -21 -1 -3 6 -11 7 -17 4 -6 -4 -6 0 1 14 8 15 7 23 -8 36 -20 18
-36 22 -26 6 3 -5 1 -10 -4 -10 -6 0 -11 5 -11 11 0 8 -6 7 -17 -2 -15 -12
-16 -12 -8 1 4 8 17 26 29 39 12 13 15 21 9 17 -16 -9 -17 6 -3 20 6 6 8 18 4
28 -5 14 -9 14 -22 4 -14 -11 -15 -10 -8 7 4 11 -8 2 -27 -20 -19 -22 -34 -41
-33 -42 8 -8 44 12 40 22 -3 7 0 16 7 21 9 5 10 2 6 -12 -7 -19 -7 -19 8 0 8
11 18 16 22 12 13 -12 -47 -54 -73 -51 -16 1 -24 -3 -25 -14 0 -10 -2 -12 -6
-3 -2 6 10 31 28 55 l33 42 -44 -40 c-30 -28 -38 -32 -27 -15 9 14 16 29 16
33 -1 5 3 12 7 15 4 4 4 1 0 -5 -15 -26 3 -12 30 25 17 22 20 31 9 22 -17 -14
-18 -13 -12 4 6 16 5 17 -8 6 -9 -8 -13 -21 -10 -34 5 -18 4 -18 -8 3 -13 22
-12 26 12 48 l26 24 -37 -23 c-24 -15 -32 -25 -25 -30 7 -4 8 -8 2 -8 -5 0 -3
-4 5 -10 8 -5 11 -12 7 -17 -5 -4 -12 -1 -17 7 -9 14 -14 7 -11 -13 1 -5 -4
-5 -10 -2 -8 5 -8 10 0 18 14 14 14 30 0 21 -8 -4 -8 0 0 15 7 11 9 21 5 21
-3 0 0 8 7 18 13 16 12 16 -6 3 -11 -8 -33 -26 -50 -40 -23 -21 -26 -21 -11
-4 10 12 15 26 12 32 -4 5 -1 13 5 17 8 4 9 3 5 -4 -11 -18 9 -14 24 3 11 13
10 14 -5 9 -13 -5 -16 -3 -13 7 3 8 10 14 16 14 6 0 17 7 24 15 11 12 11 12
-4 1 -10 -7 -18 -10 -18 -5 0 4 -16 -8 -36 -27 -19 -18 -37 -33 -40 -31 -12 6
-17 1 -5 -7 9 -6 10 -11 2 -15 -6 -4 -11 -3 -11 3 0 6 -8 7 -17 4 -10 -4 -4 8
15 26 32 33 38 56 7 31 -13 -11 -14 -10 -9 3 4 11 0 15 -13 12 -10 -1 -17 -7
-16 -12 1 -5 -5 -10 -13 -10 -12 0 -12 3 1 17 20 22 19 34 -2 26 -14 -6 -14
-4 2 14 24 27 62 49 50 29 -6 -8 -4 -10 6 -4 12 8 12 6 0 -8 -15 -18 -26 -23
-16 -7 3 6 2 10 -3 10 -14 0 -22 -24 -13 -39 5 -8 13 -6 26 9 17 19 19 19 32
2 8 -9 11 -11 7 -3 -4 9 -3 12 4 7 6 -3 14 -2 17 4 4 6 3 10 -2 9 -18 -3 -34
1 -30 9 2 4 -4 15 -15 25 -10 10 -18 12 -18 5 0 -6 -3 -8 -7 -5 -3 4 -15 0
-25 -10 -10 -9 -18 -13 -18 -8 0 4 -7 2 -15 -5 -8 -7 -12 -17 -8 -23 3 -6 1
-7 -6 -3 -9 6 -8 14 4 33 10 14 12 22 6 19 -6 -4 -11 -3 -11 2 0 17 13 21 34
10 11 -6 18 -7 13 -3 -4 5 1 18 10 29 10 12 11 16 4 9 -7 -6 -20 -9 -28 -6 -8
3 -29 -7 -46 -23 l-32 -29 33 36 c28 30 31 37 17 43 -9 3 -13 2 -10 -4 4 -6
-1 -7 -11 -3 -13 5 -16 2 -12 -8 5 -12 -1 -15 -22 -15 -16 0 -27 3 -24 7 2 5
11 6 19 2 8 -3 15 -1 15 5 0 15 -26 22 -39 9 -8 -8 -14 -8 -22 0 -8 8 -7 13 2
18 8 5 10 4 5 -3 -4 -7 -3 -12 2 -12 6 0 12 6 15 14 8 20 -22 29 -41 14 -10
-8 -13 -9 -9 -1 4 6 4 13 0 16 -5 2 -3 2 4 1 22 -5 24 14 3 21 -17 5 -19 10
-9 21 16 20 -1 18 -23 -3 -18 -16 -19 -16 -14 10 2 15 0 27 -5 27 -5 0 -9 -6
-9 -12 0 -9 -3 -8 -9 2 -11 16 -4 33 9 25 5 -3 11 -2 14 3 7 12 -26 11 -41 0
-7 -6 -10 -15 -6 -21 4 -6 1 -7 -6 -3 -9 6 -9 12 3 25 15 16 14 19 -9 29 -23
11 -24 14 -14 34 11 20 10 21 -3 10 -13 -11 -15 -8 -12 19 4 31 4 32 -16 14
-11 -10 -20 -14 -20 -10 0 4 -9 0 -19 -9 -15 -14 -21 -15 -27 -4 -4 7 -4 10 1
6 4 -4 14 -3 22 3 15 13 18 33 3 24 -19 -12 -10 9 17 37 26 27 21 41 -6 16 -8
-7 -11 -8 -9 -3 6 10 -16 37 -24 29 -3 -2 -5 3 -5 11 0 12 3 12 16 2 9 -6 19
-16 22 -21 4 -5 15 1 25 13 10 11 23 21 28 21 5 0 2 -8 -7 -18 -10 -10 -14
-22 -10 -25 3 -4 13 2 21 14 21 30 0 49 -28 24 -17 -15 -23 -16 -33 -5 -10 10
-9 11 2 5 9 -5 12 -3 9 6 -3 8 -11 13 -17 11 -6 -1 -11 3 -11 8 0 7 -8 7 -22
-1 -23 -12 -23 -12 -4 9 16 19 20 19 33 6 8 -8 18 -12 23 -9 5 3 11 -1 13 -7
4 -10 6 -10 6 0 1 7 -6 15 -14 18 -8 4 -12 10 -9 15 3 5 -2 6 -10 3 -9 -3 -16
-1 -16 5 0 6 -6 10 -12 9 -7 -2 -13 6 -13 17 -1 20 -6 22 -37 10 -11 -4 -18
-3 -18 4 0 7 10 16 23 21 21 8 21 9 -5 7 -15 -1 -24 -5 -22 -9 3 -4 -1 -5 -9
-2 -20 7 -53 -44 -38 -59 6 -6 11 -16 11 -21 0 -6 -7 0 -16 12 -12 18 -13 26
-4 37 6 8 8 20 4 26 -4 7 -3 9 2 6 5 -3 21 4 34 15 21 16 22 19 5 13 -16 -5
-18 -4 -7 6 29 30 9 30 -22 0 -19 -18 -32 -39 -30 -46 3 -6 -3 -18 -13 -25
-15 -12 -16 -12 -5 0 6 8 12 18 12 23 0 4 -6 5 -12 1 -7 -5 4 12 25 36 27 31
34 46 25 51 -8 5 -22 -1 -36 -14 -18 -17 -22 -18 -16 -4 7 20 1 21 -29 6 -20
-9 -20 -9 -4 4 24 20 21 30 -5 22 l-23 -7 23 17 c30 22 18 39 -14 19 -23 -15
-24 -15 -18 0 4 9 9 15 11 12 6 -5 19 7 43 39 14 19 14 19 -10 0 -57 -47 -64
-52 -57 -32 3 9 2 17 -4 17 -6 0 -6 7 1 19 11 22 -2 37 -22 25 -6 -4 -8 -3 -5
4 10 15 -3 43 -16 35 -6 -4 -7 -1 -3 6 5 7 14 10 22 7 8 -3 11 0 7 10 -7 19
-12 18 -42 -8 l-26 -23 21 25 c33 40 36 49 20 66 -9 8 -16 11 -16 6 0 -5 -9
-12 -20 -15 -18 -4 -18 -3 -5 17 15 22 11 36 -8 36 -5 0 -7 -7 -4 -15 4 -8 1
-17 -5 -21 -6 -4 -8 -3 -5 3 4 6 -2 21 -12 34 l-19 23 3 -27 c2 -15 0 -25 -5
-22 -9 5 -5 48 6 67 4 7 -2 4 -14 -6 -26 -22 -29 -11 -5 16 9 10 14 21 10 24
-3 3 -13 -3 -23 -15 -10 -11 -21 -18 -26 -15 -4 3 -1 13 8 21 15 15 15 17 -5
24 -11 5 -18 14 -16 21 3 7 -5 18 -17 23 -13 6 -28 21 -35 35 -7 13 -19 30
-28 36 -9 7 -15 21 -14 31 2 11 -17 39 -49 71 -54 56 -60 67 -39 75 6 3 2 6
-10 6 -13 1 -23 5 -23 10 0 5 -16 24 -35 42 -19 19 -35 39 -35 46 0 6 -9 15
-20 18 -11 3 -20 12 -20 18 -1 12 -55 77 -65 77 -3 0 -22 16 -42 35 -49 46
-217 128 -318 156 -116 31 -371 36 -508 10z m1417 -870 c-5 -3 -12 -10 -15
-14 -4 -4 -9 -1 -13 8 -3 9 -2 13 4 10 6 -3 10 -1 10 5 0 6 5 8 11 4 6 -3 7
-9 3 -13z m16 -75 c0 -3 -4 -8 -10 -11 -5 -3 -10 -1 -10 4 0 6 5 11 10 11 6 0
10 -2 10 -4z m30 -30 c0 -2 -8 -10 -17 -17 -16 -13 -17 -12 -4 4 13 16 21 21
21 13z m-47 -51 c-3 -9 -8 -14 -10 -11 -3 3 -2 9 2 15 9 16 15 13 8 -4z m212
-165 c-3 -5 -1 -10 6 -10 7 0 10 -3 6 -6 -9 -9 -28 6 -22 17 4 5 8 9 11 9 3 0
2 -4 -1 -10z m56 -4 c-10 -11 -8 -16 6 -24 10 -6 16 -12 13 -14 -3 -2 -18 -12
-35 -23 l-30 -18 19 28 c14 21 16 30 7 33 -8 3 -6 9 6 18 23 17 28 18 14 0z
m-7 -84 c3 -5 -1 -9 -9 -9 -8 0 -12 4 -9 9 3 4 7 8 9 8 2 0 6 -4 9 -8z m-2561
-296 c316 -83 692 -178 753 -191 17 -3 41 -17 54 -30 18 -19 20 -27 11 -44
-11 -20 -31 -25 -91 -22 -25 2 -230 -53 -257 -67 -17 -10 29 -77 165 -240 53
-65 142 -175 197 -245 55 -71 148 -190 207 -265 259 -331 512 -664 798 -1048
69 -92 139 -185 155 -207 l30 -39 0 -281 c0 -251 -3 -295 -23 -397 -24 -127
-60 -249 -61 -212 -1 34 -17 59 -91 142 -80 91 -149 178 -260 330 -46 63 -122
164 -169 224 -47 60 -120 155 -161 212 -144 196 -296 397 -415 549 -66 84
-151 194 -190 244 -66 87 -155 202 -305 392 -36 46 -85 111 -110 145 -25 34
-74 98 -110 144 -114 144 -155 198 -172 230 -10 17 -25 33 -33 37 -17 6 -68
-26 -65 -41 1 -5 -9 -14 -22 -20 -15 -8 -22 -19 -20 -32 3 -23 -74 -94 -101
-94 -8 0 -17 -7 -21 -15 -7 -18 -27 -20 -23 -2 3 18 35 39 49 31 7 -4 8 -3 4
4 -4 7 -23 9 -52 5 -34 -4 -48 -2 -55 8 -6 10 -9 7 -9 -12 0 -27 21 -54 33
-42 4 3 7 1 7 -5 0 -17 -55 -15 -70 3 -9 11 -10 53 -5 167 8 203 33 627 41
706 6 60 7 62 35 62 16 0 174 -38 352 -84z m2735 -2 c-1 -5 -9 -9 -16 -10 -10
-2 -11 1 -1 12 12 14 24 13 17 -2z m63 -126 c-10 -11 -11 -10 -5 5 5 14 2 16
-12 11 -16 -5 -16 -4 -4 5 20 14 39 -4 21 -21z m29 3 c-5 -11 -15 -23 -21 -27
-6 -3 -3 5 6 20 20 30 30 35 15 7z m50 -31 c0 -5 -2 -10 -4 -10 -3 0 -8 5 -11
10 -3 6 -1 10 4 10 6 0 11 -4 11 -10z m21 -13 c-10 -9 -11 -8 -5 6 3 10 9 15
12 12 3 -3 0 -11 -7 -18z m-1765 -12 c11 -7 75 -84 142 -171 177 -232 411
-532 457 -588 22 -27 90 -108 150 -181 101 -121 178 -215 301 -369 78 -98 202
-272 249 -350 121 -198 221 -454 272 -694 24 -113 27 -148 27 -317 0 -208 -15
-305 -89 -590 -87 -335 -250 -691 -449 -980 -93 -135 -188 -265 -197 -271 -18
-11 -170 -33 -304 -44 -77 -6 -212 -18 -300 -26 -609 -57 -1350 -1 -1810 137
-385 116 -584 192 -820 313 -131 66 -359 215 -470 306 -158 129 -405 409 -653
740 -51 69 -132 176 -180 239 -48 63 -114 153 -147 201 -33 47 -110 151 -171
230 -161 211 -324 439 -345 485 -42 90 -8 150 120 214 264 133 725 411 918
553 214 157 430 359 619 579 l92 106 303 9 c325 9 487 9 496 1 3 -3 8 -62 13
-130 6 -105 11 -131 32 -169 l24 -44 -28 -24 c-16 -14 -37 -28 -46 -31 -9 -3
-111 -14 -227 -23 -115 -10 -219 -21 -230 -26 -11 -4 -78 -59 -149 -121 -322
-284 -434 -369 -628 -477 -69 -38 -139 -79 -155 -90 -26 -18 -85 -51 -318
-180 -169 -93 -205 -119 -205 -146 0 -52 25 -92 255 -406 51 -69 102 -141 115
-160 14 -19 57 -75 96 -125 40 -49 114 -149 166 -221 234 -330 486 -608 685
-758 241 -181 607 -347 958 -435 150 -38 245 -54 510 -89 187 -24 241 -27 490
-26 309 0 426 10 650 55 278 56 298 66 417 212 125 153 198 278 295 506 86
202 165 485 183 655 11 103 0 269 -26 395 -32 158 -141 381 -268 553 -26 35
-72 97 -102 138 -31 41 -101 131 -157 200 -56 68 -127 158 -158 200 -31 41
-197 251 -368 465 -289 361 -366 465 -342 465 13 0 121 67 149 92 13 13 31 36
39 52 17 34 20 124 4 153 -8 16 -8 23 2 27 18 8 89 -4 113 -19z m1974 -98 c0
-2 -10 -12 -22 -23 l-23 -19 19 23 c18 21 26 27 26 19z m-130 -31 c0 -3 -4 -8
-10 -11 -5 -3 -10 -1 -10 4 0 6 5 11 10 11 6 0 10 -2 10 -4z m250 -109 c0 -2
-10 -12 -22 -23 l-23 -19 19 23 c18 21 26 27 26 19z m-90 -41 c0 -3 -4 -8 -10
-11 -5 -3 -10 -1 -10 4 0 6 5 11 10 11 6 0 10 -2 10 -4z m128 -46 c-12 -19
-28 -27 -28 -14 0 6 30 33 38 34 1 0 -3 -9 -10 -20z m-68 -12 c0 -6 -6 -5 -15
2 -8 7 -15 14 -15 16 0 2 7 1 15 -2 8 -4 15 -11 15 -16z m56 -66 c-6 -6 -46
36 -46 49 0 4 12 -3 26 -18 14 -14 23 -28 20 -31z m84 43 c-7 -9 -15 -13 -17
-11 -7 7 7 26 19 26 6 0 6 -6 -2 -15z m35 5 c-3 -5 -1 -10 5 -10 7 0 7 -7 -2
-22 -7 -13 -13 -32 -13 -43 -1 -21 -34 -88 -35 -70 0 6 7 21 16 33 8 12 10 22
5 22 -15 0 -13 20 4 54 16 30 16 30 -5 11 -11 -10 -20 -13 -20 -8 0 6 10 18
23 26 26 19 30 20 22 7z m-61 -18 c3 -5 7 -20 10 -35 2 -15 7 -31 10 -36 4 -5
1 -13 -5 -17 -8 -5 -9 -3 -4 6 6 9 1 10 -16 6 -22 -7 -23 -6 -6 8 11 8 14 17
8 20 -5 4 -12 2 -16 -4 -8 -13 -25 -3 -25 13 0 9 2 9 8 1 5 -9 10 -8 19 2 8 8
9 15 3 19 -6 3 -10 10 -10 16 0 11 17 12 24 1z m-83 -39 c13 -16 12 -17 -3 -4
-10 7 -18 15 -18 17 0 8 8 3 21 -13z m179 -3 c0 -5 -5 -10 -11 -10 -5 0 -7 5
-4 10 3 6 8 10 11 10 2 0 4 -4 4 -10z m-150 -19 c0 -5 -7 -12 -16 -15 -14 -5
-15 -4 -4 9 14 17 20 19 20 6z m60 -55 c0 -2 -8 -10 -17 -17 -16 -13 -17 -12
-4 4 13 16 21 21 21 13z m185 -5 c3 -5 0 -13 -6 -17 -8 -4 -7 -9 2 -15 12 -7
11 -11 -3 -25 -15 -16 -16 -15 -14 19 2 20 -2 38 -8 41 -6 2 -3 5 6 5 9 1 19
-3 23 -8z m-135 -15 c0 -2 -7 -7 -16 -10 -8 -3 -12 -2 -9 4 6 10 25 14 25 6z
m94 -58 c-3 -5 -12 -2 -20 6 -20 21 -17 28 5 14 11 -7 17 -16 15 -20z m26 -18
c0 -5 -2 -10 -4 -10 -3 0 -8 5 -11 10 -3 6 -1 10 4 10 6 0 11 -4 11 -10z m22
-59 c-9 -16 -18 -28 -21 -26 -4 5 27 55 34 55 2 0 -4 -13 -13 -29z m115 -11
c-5 -21 15 -45 28 -32 4 4 3 -3 -4 -15 -17 -33 -30 -36 -26 -7 2 18 -1 24 -12
20 -9 -4 -13 -1 -9 6 3 7 9 21 12 31 9 23 18 22 11 -3z m-55 -56 c-9 -16 -10
-14 -9 8 1 15 6 23 11 18 4 -4 4 -16 -2 -26z m138 -34 c-22 -31 -49 -54 -35
-29 10 17 47 59 52 59 3 0 -5 -13 -17 -30z m-3790 -60 c14 -27 12 -34 -5 -20
-11 9 -15 10 -15 1 0 -16 -26 -42 -34 -34 -3 4 -6 2 -6 -4 0 -13 -5 -13 -135
-18 l-110 -5 65 18 c36 10 94 36 130 59 68 43 88 43 110 3z m3793 12 c-3 -12
-9 -19 -14 -16 -5 3 -4 14 2 25 13 26 20 21 12 -9z m85 11 c0 -10 2 -25 6 -34
5 -11 -2 -22 -21 -34 -24 -16 -26 -16 -14 -2 10 13 11 17 1 17 -9 0 -7 7 6 22
10 12 14 18 8 15 -7 -4 -14 0 -17 8 -4 9 -1 12 9 8 7 -3 14 0 14 6 0 6 2 11 4
11 3 0 4 -8 4 -17z m-148 -27 c0 -2 -7 -9 -15 -16 -13 -11 -14 -10 -9 4 5 14
24 23 24 12z m110 -11 c-7 -8 -9 -15 -5 -15 4 0 2 -7 -5 -15 -10 -12 -8 -17
14 -26 14 -7 23 -16 19 -22 -3 -5 -9 -3 -15 4 -8 12 -10 12 -15 0 -5 -11 -7
-11 -15 0 -7 11 -11 11 -15 2 -2 -7 -9 -13 -15 -13 -5 0 0 14 12 31 12 16 20
33 17 36 -7 6 14 32 27 33 5 0 3 -7 -4 -15z m-98 -37 c-8 -8 -9 -4 -5 13 4 13
8 18 11 10 2 -7 -1 -18 -6 -23z m48 -3 c-7 -8 -17 -15 -23 -15 -6 0 -2 7 9 15
25 19 30 19 14 0z m-59 -48 c-10 -9 -11 -8 -5 6 3 10 9 15 12 12 3 -3 0 -11
-7 -18z m-3411 -12 c7 -9 8 -15 2 -15 -5 0 -12 7 -16 15 -3 8 -4 15 -2 15 2 0
9 -7 16 -15z m3440 5 c0 -5 -5 -10 -11 -10 -5 0 -7 5 -4 10 3 6 8 10 11 10 2
0 4 -4 4 -10z m43 -25 c-3 -9 -8 -14 -10 -11 -3 3 -2 9 2 15 9 16 15 13 8 -4z
m52 -24 c-6 -5 -25 10 -25 20 0 5 6 4 14 -3 8 -7 12 -15 11 -17z m-3492 -16
c23 -32 17 -32 -13 0 -13 14 -19 25 -14 25 5 0 17 -12 27 -25z m3652 -15 c-3
-5 0 -10 7 -10 8 -1 4 -9 -9 -19 -13 -11 -23 -27 -23 -38 0 -14 -3 -13 -14 7
-13 26 -10 52 5 29 6 -10 11 -6 18 14 6 15 13 27 16 27 4 0 3 -4 0 -10z m-113
-22 c-7 -7 -12 -8 -12 -2 0 14 12 26 19 19 2 -3 -1 -11 -7 -17z m72 -68 c10
-13 9 -13 -9 0 -11 8 -22 15 -24 17 -1 1 1 7 5 14 6 10 9 10 12 -1 3 -8 10
-22 16 -30z m-3812 -16 c42 -22 126 -130 877 -1129 612 -814 716 -950 807
-1060 77 -92 79 -97 48 -142 -14 -21 -39 -64 -55 -96 -44 -87 -113 -189 -145
-217 -16 -14 -23 -18 -16 -10 6 8 12 21 12 30 0 8 9 22 19 29 11 8 17 21 13
29 -3 10 -1 13 6 8 7 -4 12 -1 12 9 0 9 10 35 21 58 l21 42 -26 -24 c-14 -14
-42 -48 -63 -78 -48 -70 -179 -153 -243 -153 -14 0 -80 88 -80 106 0 3 -28 42
-62 86 -97 126 -141 183 -163 213 -11 15 -47 61 -81 103 -33 43 -76 102 -96
132 -19 30 -73 102 -119 160 -46 58 -118 150 -159 205 -41 55 -95 125 -120
155 -26 30 -62 80 -80 110 -18 30 -35 57 -39 60 -10 8 -111 138 -203 260 -48
63 -117 149 -153 190 -37 41 -98 118 -135 170 -38 52 -108 140 -155 195 -48
55 -114 140 -148 188 -56 80 -63 86 -75 70 -12 -16 -14 -11 -10 41 8 97 24
108 373 237 135 50 158 53 217 23z m4024 -43 c-14 -15 -14 -19 -3 -24 15 -5
16 -34 3 -55 -4 -8 -13 -9 -24 -4 -9 5 -30 7 -46 6 -15 -2 -26 0 -22 3 3 3 18
6 33 7 32 2 53 12 53 27 0 6 -6 7 -12 2 -20 -12 -32 -11 -45 2 -10 10 -9 16 2
25 11 9 15 9 15 1 0 -20 38 6 46 31 4 14 9 18 12 10 2 -7 -3 -21 -12 -31z
m-146 15 c0 -2 -8 -10 -17 -17 -16 -13 -17 -12 -4 4 13 16 21 21 21 13z m44
-48 c-19 -21 -19 -21 1 -14 15 5 17 4 8 -5 -20 -20 -37 0 -17 22 9 10 19 19
22 19 3 0 -3 -10 -14 -22z m71 -147 c3 -5 2 -12 -3 -15 -5 -3 -9 1 -9 9 0 17
3 19 12 6z m75 -55 c0 -3 -4 -8 -10 -11 -5 -3 -10 -1 -10 4 0 6 5 11 10 11 6
0 10 -2 10 -4z m26 -34 c1 -7 0 -8 -3 -2 -2 5 -9 8 -14 4 -5 -3 -9 0 -9 6 0
15 23 7 26 -8z m44 -3 c0 -6 7 -8 16 -5 8 3 12 2 9 -4 -3 -6 -1 -10 5 -10 6 0
8 -5 4 -12 -6 -9 -9 -9 -12 0 -2 7 -8 10 -13 6 -5 -3 -9 0 -9 7 0 10 -3 10
-12 1 -19 -19 -29 -14 -16 8 14 22 28 26 28 9z m10 -45 c0 -8 -19 -13 -24 -6
-3 5 1 9 9 9 8 0 15 -2 15 -3z m90 -34 c0 -5 -5 -10 -11 -10 -5 0 -7 5 -4 10
3 6 8 10 11 10 2 0 4 -4 4 -10z m96 -35 c-3 -8 -1 -15 4 -15 16 0 11 -19 -9
-39 -11 -11 -16 -23 -13 -27 4 -4 1 -4 -6 0 -7 4 -9 12 -6 18 4 6 0 14 -7 20
-11 7 -9 8 6 6 12 -2 21 3 21 12 1 8 2 21 3 28 0 6 4 12 7 12 3 0 4 -7 0 -15z
m-143 -10 c-3 -9 -8 -14 -10 -11 -3 3 -2 9 2 15 9 16 15 13 8 -4z m17 -29 c0
-2 -7 -9 -15 -16 -13 -11 -14 -10 -9 4 5 14 24 23 24 12z m23 -11 c-3 -9 -8
-14 -10 -11 -3 3 -2 9 2 15 9 16 15 13 8 -4z m-6154 -97 l23 -36 40 14 c49 17
104 18 163 3 72 -18 77 -34 26 -81 -35 -33 -47 -39 -69 -34 -15 4 -49 10 -75
13 l-49 6 17 -33 c28 -53 16 -64 -65 -56 -68 7 -70 7 -82 -19 -10 -22 -8 -30
9 -53 27 -36 74 -39 212 -13 148 29 223 28 275 -3 82 -48 116 -126 96 -220
-12 -60 -58 -126 -87 -126 -11 0 -13 -6 -8 -22 18 -61 18 -65 -18 -87 -19 -11
-44 -21 -55 -21 -19 0 -55 35 -64 61 -2 7 -33 3 -83 -11 -91 -23 -163 -20
-214 11 -28 17 -30 22 -25 61 9 67 21 74 92 54 161 -45 322 9 322 108 0 26 -7
44 -24 61 -27 27 -19 28 -188 -6 -109 -21 -222 -25 -279 -8 -54 17 -80 49 -95
119 -20 98 11 187 81 230 l34 21 -20 34 -20 34 21 21 c33 33 79 24 109 -22z
m6280 -15 c-24 -31 -39 -45 -39 -37 0 8 41 54 48 54 2 0 -2 -8 -9 -17z m16
-33 c-3 -5 -11 -10 -16 -10 -6 0 -7 5 -4 10 3 6 11 10 16 10 6 0 7 -4 4 -10z
m151 -39 c-13 -15 -14 -20 -4 -24 7 -3 3 -4 -9 -4 -18 1 -20 4 -10 17 13 16
29 30 36 30 2 0 -4 -9 -13 -19z m-169 -36 c0 -8 -4 -12 -9 -9 -4 3 -8 9 -8 15
0 5 4 9 8 9 5 0 9 -7 9 -15z m29 -17 c-9 -12 -16 -19 -16 -15 0 11 24 47 28
42 2 -2 -3 -14 -12 -27z m92 17 c-2 -1 -14 -8 -28 -14 -22 -11 -23 -10 -8 2
10 8 15 17 11 21 -4 4 1 4 10 0 10 -3 17 -8 15 -9z m137 -55 c-16 -18 -16 -20
-1 -26 9 -3 13 -10 10 -16 -3 -5 -13 0 -21 12 -12 16 -12 24 -3 35 7 8 17 15
23 15 5 0 2 -9 -8 -20z m-5124 -25 c16 -9 60 -57 98 -108 38 -51 119 -157 180
-237 61 -80 204 -269 318 -420 113 -151 245 -326 292 -389 47 -62 129 -171
181 -241 113 -153 329 -437 380 -500 99 -121 130 -196 54 -128 -21 19 -45 33
-52 31 -6 -3 -10 -9 -6 -14 3 -5 -31 -9 -80 -9 -47 0 -88 5 -91 10 -3 6 -32
11 -63 11 -34 1 -45 4 -27 6 17 3 36 9 43 15 8 7 12 7 12 0 0 -13 32 -21 64
-15 17 4 28 14 32 29 7 26 34 54 34 35 0 -6 -4 -11 -10 -11 -5 0 -7 -7 -3 -17
6 -14 8 -14 24 5 17 21 17 21 39 2 31 -27 38 -25 13 3 -11 12 -41 52 -67 90
-26 37 -51 67 -57 67 -5 0 -9 7 -9 15 0 17 -34 37 -46 27 -5 -4 -2 2 6 12 8
11 10 17 3 13 -6 -4 -14 -3 -18 3 -10 16 -28 12 -21 -6 3 -8 2 -12 -4 -9 -6 3
-10 13 -10 21 0 10 -5 12 -12 8 -9 -5 -8 -2 1 10 10 12 17 14 25 6 5 -5 14
-10 19 -10 8 0 -79 117 -95 126 -5 3 -7 -6 -4 -20 3 -15 1 -24 -5 -21 -5 4 -7
9 -5 13 6 10 -21 32 -30 24 -4 -4 -4 -1 0 6 4 7 11 10 16 7 23 -14 16 15 -10
46 -20 23 -28 27 -24 14 4 -11 14 -26 22 -32 9 -7 11 -13 5 -13 -18 0 -54 52
-48 69 3 8 3 12 -1 8 -4 -4 -13 -2 -19 3 -9 8 -12 3 -11 -17 0 -17 -4 -27 -11
-26 -7 2 -10 -4 -7 -12 5 -12 10 -10 25 8 15 18 18 19 19 5 0 -22 -33 -41 -47
-27 -8 8 -13 5 -18 -10 -10 -33 -21 -25 -35 23 -7 24 -20 47 -29 50 -9 4 -27
13 -41 21 -31 18 -38 11 -15 -15 18 -20 18 -21 0 -38 -10 -9 -15 -11 -11 -4 4
6 3 12 -3 12 -5 0 -22 5 -38 11 -20 7 -24 12 -14 18 9 6 5 10 -15 15 -16 4
-32 13 -36 19 -5 8 -10 4 -14 -10 -4 -13 -10 -23 -14 -23 -5 0 -10 10 -12 23
-2 18 -9 22 -32 20 -16 -1 -37 -5 -45 -9 -9 -4 -29 -7 -46 -8 -23 -1 -29 -5
-27 -18 2 -10 -2 -18 -8 -18 -5 0 -10 11 -10 24 0 21 6 25 38 29 24 3 20 3
-11 2 -26 -1 -50 2 -53 7 -4 6 -11 5 -17 -1 -6 -6 -21 -11 -34 -11 -19 0 -23
-5 -23 -29 0 -21 -6 -30 -22 -35 -18 -4 -20 -8 -10 -18 9 -9 15 -9 24 0 7 7
16 12 22 12 5 0 1 -7 -10 -15 -21 -16 -79 -21 -69 -5 3 6 -1 10 -9 10 -16 0
-22 15 -8 23 4 2 2 3 -5 1 -6 -1 -32 24 -58 56 -25 33 -52 65 -59 72 -13 14
-40 59 -41 69 0 3 -17 23 -37 45 -20 21 -60 68 -88 104 -29 36 -59 74 -68 86
-10 11 -21 28 -27 37 -13 20 -75 101 -200 258 -326 410 -365 465 -365 514 0
52 167 148 380 219 116 39 157 43 201 21z m4890 -8 c-10 -9 -11 -8 -5 6 3 10
9 15 12 12 3 -3 0 -11 -7 -18z m107 11 c-2 -7 5 -12 16 -11 13 1 15 -2 7 -10
-12 -12 -44 9 -35 24 8 13 14 11 12 -3z m112 -43 c0 -5 -5 -3 -10 5 -5 8 -10
20 -10 25 0 6 5 3 10 -5 5 -8 10 -19 10 -25z m-155 5 c-3 -5 -12 -10 -18 -10
-7 0 -6 4 3 10 19 12 23 12 15 0z m75 -25 c-7 -9 -15 -13 -18 -10 -3 3 -12 -1
-21 -8 -14 -11 -14 -10 -2 6 7 9 20 17 27 17 8 0 14 5 14 12 0 6 3 8 6 5 4 -4
1 -13 -6 -22z m-109 -18 c-10 -9 -11 -8 -5 6 3 10 9 15 12 12 3 -3 0 -11 -7
-18z m154 5 c-3 -3 -11 0 -18 7 -9 10 -8 11 6 5 10 -3 15 -9 12 -12z m28 3
c-3 -9 -8 -14 -10 -11 -3 3 -2 9 2 15 9 16 15 13 8 -4z m42 -4 c-3 -6 -11 -8
-17 -5 -6 4 -5 9 3 15 16 10 23 4 14 -10z m-220 -50 c-3 -6 -11 -11 -17 -11
-6 0 -6 6 2 15 14 17 26 13 15 -4z m185 -45 c0 -3 -4 -8 -10 -11 -5 -3 -10 -1
-10 4 0 6 5 11 10 11 6 0 10 -2 10 -4z m75 -6 c3 -6 -1 -7 -9 -4 -18 7 -21 14
-7 14 6 0 13 -4 16 -10z m51 -65 c-1 -8 -5 -17 -8 -21 -5 -4 -4 16 1 34 3 9 9
-1 7 -13z m-78 -20 c-3 -3 -9 2 -12 12 -6 14 -5 15 5 6 7 -7 10 -15 7 -18z
m152 -205 c0 -5 -5 -10 -11 -10 -5 0 -7 5 -4 10 3 6 8 10 11 10 2 0 4 -4 4
-10z m-69 -177 c13 -16 12 -17 -3 -4 -10 7 -18 15 -18 17 0 8 8 3 21 -13z
m-5860 -27 c19 -13 89 -97 155 -187 65 -89 153 -205 195 -258 41 -53 150 -195
240 -316 91 -121 201 -266 245 -323 116 -152 174 -234 174 -246 0 -6 -8 -2
-18 10 -19 23 -99 77 -121 82 -8 2 -26 10 -40 18 -14 8 -18 13 -8 10 9 -3 17
-3 17 1 0 3 -8 12 -17 19 -17 13 -17 15 1 25 17 10 17 13 4 23 -8 6 -16 16
-16 21 -2 10 -157 213 -218 284 -17 20 -45 58 -63 84 -55 82 -251 331 -279
356 -15 13 -21 20 -13 15 8 -4 0 11 -19 34 -18 23 -36 42 -39 42 -3 0 0 -5 7
-12 15 -15 16 -42 0 -32 -7 5 -8 3 -4 -5 5 -7 14 -10 22 -7 32 12 -1 -25 -37
-40 -32 -15 -36 -19 -23 -28 9 -7 12 -18 8 -29 -9 -23 -24 -22 -24 3 0 11 -4
20 -10 20 -5 0 -10 -9 -10 -20 0 -14 -6 -20 -17 -18 -12 2 -19 -4 -21 -18 -2
-12 -14 -26 -27 -32 -16 -7 -26 -23 -30 -45 -5 -27 -18 -43 -58 -71 -33 -22
-45 -36 -34 -36 10 0 15 -4 12 -10 -3 -5 -15 -10 -25 -10 -10 0 -24 -8 -30
-17 -8 -13 -13 -14 -16 -5 -9 20 -26 14 -19 -8 4 -12 2 -20 -5 -20 -7 0 -14 9
-17 20 -3 11 -10 20 -15 20 -5 0 -6 -6 -2 -12 5 -9 3 -9 -9 1 -9 7 -14 18 -10
24 3 5 1 7 -4 4 -6 -4 -33 17 -59 47 -193 211 -298 370 -275 415 19 34 72 72
185 128 257 130 303 142 367 99z m227 -436 c1 -17 -3 -30 -9 -30 -6 0 -9 9 -6
20 3 11 1 18 -3 15 -5 -3 -11 -1 -14 4 -4 5 2 12 11 14 10 3 18 5 18 6 1 0 2
-12 3 -29z m-128 -100 c0 -5 -4 -10 -10 -10 -5 0 -10 5 -10 10 0 6 5 10 10 10
6 0 10 -4 10 -10z m-127 -145 c-3 -9 -8 -14 -10 -11 -3 3 -2 9 2 15 9 16 15
13 8 -4z m-83 -75 c0 -5 -2 -10 -4 -10 -3 0 -8 5 -11 10 -3 6 -1 10 4 10 6 0
11 -4 11 -10z m1418 -22 c-3 -7 -11 -13 -18 -13 -7 0 -15 6 -17 13 -3 7 4 12
17 12 13 0 20 -5 18 -12z m-1383 -8 c3 -6 -1 -7 -9 -4 -18 7 -21 14 -7 14 6 0
13 -4 16 -10z m75 -61 c0 -6 8 -8 19 -4 11 3 23 0 27 -6 4 -8 3 -9 -4 -5 -7 4
-20 2 -29 -3 -10 -6 -12 -11 -5 -11 6 0 12 -5 12 -11 0 -8 -5 -7 -15 1 -9 7
-13 15 -10 18 3 3 0 11 -6 19 -9 9 -8 13 0 13 6 0 11 -5 11 -11z m1700 -29 c0
-5 -7 -10 -15 -10 -18 0 -20 -16 -2 -23 7 -3 6 -6 -5 -6 -26 -1 -32 19 -12 34
23 17 34 19 34 5z m114 -101 c-9 -14 -33 2 -31 21 1 18 3 18 19 3 10 -8 15
-19 12 -24z m-50 12 c3 -5 -1 -14 -8 -20 -10 -9 -16 -9 -21 -1 -4 6 -1 9 7 8
7 -2 12 3 11 10 -3 14 3 16 11 3z m-1499 -51 c-3 -5 -1 -10 6 -10 7 0 10 -2 7
-5 -3 -3 -13 -2 -22 1 -14 5 -15 9 -4 15 17 11 20 11 13 -1z m1105 -231 c-11
-8 -8 -9 15 -5 l30 6 -25 -14 -25 -14 30 1 c78 3 106 -3 103 -20 -3 -15 4 -18
37 -16 31 2 35 1 19 -6 -12 -5 -58 -6 -104 -2 -69 6 -86 11 -101 30 -10 12
-23 20 -29 16 -5 -3 -7 0 -4 9 3 9 12 12 21 9 11 -4 14 -2 9 5 -5 8 1 12 16
12 19 0 20 -2 8 -11z m537 -55 c-3 -3 -12 -4 -19 -1 -8 3 -5 6 6 6 11 1 17 -2
13 -5z m-30 -40 c-3 -3 -12 -4 -19 -1 -8 3 -5 6 6 6 11 1 17 -2 13 -5z m-5487
-2760 c0 -8 -4 -14 -10 -14 -5 0 -10 9 -10 21 0 11 5 17 10 14 6 -3 10 -13 10
-21z"/>
<path d="M4952 7550 c0 -14 2 -19 5 -12 2 6 2 18 0 25 -3 6 -5 1 -5 -13z"/>
<path d="M5106 7142 c-3 -5 1 -9 9 -9 8 0 12 4 9 9 -3 4 -7 8 -9 8 -2 0 -6 -4
-9 -8z"/>
<path d="M7055 4210 c3 -5 8 -10 11 -10 2 0 4 5 4 10 0 6 -5 10 -11 10 -5 0
-7 -4 -4 -10z"/>
<path d="M7030 4180 c-6 -11 -8 -20 -6 -20 3 0 10 9 16 20 6 11 8 20 6 20 -3
0 -10 -9 -16 -20z"/>
<path d="M9390 6529 c0 -5 5 -7 10 -4 6 3 10 8 10 11 0 2 -4 4 -10 4 -5 0 -10
-5 -10 -11z"/>
<path d="M9410 6489 c0 -5 5 -7 10 -4 6 3 10 8 10 11 0 2 -4 4 -10 4 -5 0 -10
-5 -10 -11z"/>
<path d="M5620 4806 c0 -2 8 -10 18 -17 15 -13 16 -12 3 4 -13 16 -21 21 -21
13z"/>
<path d="M5820 4536 c0 -2 8 -10 18 -17 15 -13 16 -12 3 4 -13 16 -21 21 -21
13z"/>
<path d="M5860 4486 c0 -2 8 -10 18 -17 15 -13 16 -12 3 4 -13 16 -21 21 -21
13z"/>
<path d="M5856 4443 c-6 -14 -5 -15 5 -6 7 7 10 15 7 18 -3 3 -9 -2 -12 -12z"/>
<path d="M5884 4423 c2 -10 5 -16 9 -13 3 3 17 -6 32 -20 18 -17 24 -20 19 -7
-3 9 -10 17 -15 17 -5 0 -8 5 -6 12 1 7 -2 12 -8 13 -5 0 -15 4 -22 8 -7 4
-10 1 -9 -10z"/>
<path d="M5882 4355 c-13 -13 -19 -25 -15 -28 12 -7 37 15 41 36 4 21 3 21
-26 -8z"/>
<path d="M7666 8533 c-6 -14 -5 -15 5 -6 7 7 10 15 7 18 -3 3 -9 -2 -12 -12z"/>
<path d="M7692 8528 c-14 -14 -16 -28 -3 -28 9 0 24 30 18 36 -2 2 -9 -2 -15
-8z"/>
<path d="M7687 8473 c-4 -3 -7 -11 -7 -17 0 -6 5 -5 12 2 6 6 9 14 7 17 -3 3
-9 2 -12 -2z"/>
<path d="M7750 8439 c-12 -8 -12 -12 -2 -16 9 -3 10 -9 2 -18 -7 -9 -6 -16 4
-25 16 -12 36 -6 36 12 0 7 -4 7 -14 -1 -11 -9 -13 -4 -11 24 1 19 1 35 1 35
-1 0 -8 -5 -16 -11z"/>
<path d="M8036 8163 c-6 -14 -5 -15 5 -6 7 7 10 15 7 18 -3 3 -9 -2 -12 -12z"/>
<path d="M7990 8107 c-19 -18 -26 -22 -15 -9 22 27 15 40 -9 14 -21 -24 -12
-59 11 -40 8 7 24 13 36 15 18 3 19 2 6 -15 -8 -10 -4 -7 9 6 25 27 27 35 9
50 -10 9 -21 3 -47 -21z m44 6 c4 -10 4 -14 0 -10 -4 4 -14 1 -22 -6 -13 -11
-14 -9 -1 11 17 26 15 26 23 5z"/>
<path d="M8040 8058 c-12 -8 -12 -9 3 -4 25 8 21 -3 -9 -27 l-26 -20 28 -15
c30 -16 94 -25 95 -14 0 4 2 15 4 25 2 10 -1 14 -7 11 -6 -4 -8 -1 -6 7 3 8
11 13 17 11 7 -1 10 2 6 7 -9 15 -28 4 -52 -32 -13 -17 -23 -26 -23 -19 0 7
-5 10 -12 6 -7 -4 -8 -3 -4 5 4 6 11 9 16 6 15 -10 27 19 16 40 -14 24 -27 27
-46 13z m10 -43 c-7 -9 -15 -13 -17 -11 -7 7 7 26 19 26 6 0 6 -6 -2 -15z m75
-15 c3 -5 -1 -10 -10 -10 -9 0 -13 5 -10 10 3 6 8 10 10 10 2 0 7 -4 10 -10z"/>
<path d="M8133 7964 c-4 -11 -9 -12 -19 -3 -8 6 -14 8 -15 3 0 -5 -2 -17 -4
-27 -4 -19 8 -15 43 16 22 21 32 11 10 -11 -6 -6 -13 -22 -15 -34 -3 -21 -3
-21 17 -3 22 20 27 30 9 19 -7 -4 -10 -1 -7 7 3 8 10 14 16 14 6 0 17 7 24 15
11 12 11 12 -6 0 -17 -13 -19 -13 -14 0 4 11 -1 16 -14 17 -10 1 -22 -5 -25
-13z"/>
<path d="M8200 7940 c-8 -5 -7 -9 3 -13 9 -3 20 0 26 7 8 9 7 13 -4 13 -8 0
-19 -3 -25 -7z"/>
<path d="M8182 7909 c2 -7 -3 -13 -9 -14 -7 0 -13 -3 -13 -7 0 -5 0 -13 0 -19
0 -6 7 -8 16 -5 8 3 13 2 9 -3 -3 -5 2 -17 11 -26 15 -14 18 -14 34 0 9 8 19
13 22 10 3 -3 13 5 24 17 15 18 16 20 2 9 -10 -7 -18 -10 -18 -6 0 5 -9 0 -20
-10 -10 -9 -26 -15 -35 -11 -13 5 -13 9 -3 26 13 20 28 27 28 12 0 -4 -6 -14
-12 -21 -10 -11 -10 -12 -1 -7 7 4 17 15 22 25 8 14 6 18 -7 18 -9 0 -23 -5
-31 -11 -12 -9 -13 -8 -8 6 3 10 2 20 -4 23 -5 4 -8 1 -7 -6z"/>
<path d="M8334 7688 c-5 -7 -2 -9 9 -5 9 3 18 0 21 -9 5 -13 9 -13 30 3 28 21
27 29 -3 14 -13 -7 -22 -8 -26 -1 -8 13 -22 13 -31 -2z"/>
<path d="M8456 7671 c-3 -5 1 -11 9 -14 9 -4 12 -1 8 9 -6 16 -10 17 -17 5z"/>
<path d="M8350 7639 c0 -5 5 -7 10 -4 6 3 10 8 10 11 0 2 -4 4 -10 4 -5 0 -10
-5 -10 -11z"/>
<path d="M8457 7626 c-4 -10 -1 -13 8 -9 8 3 12 9 9 14 -7 12 -11 11 -17 -5z"/>
<path d="M8566 7563 c-6 -14 -5 -15 5 -6 7 7 10 15 7 18 -3 3 -9 -2 -12 -12z"/>
<path d="M8578 7459 c-10 -5 -18 -15 -18 -20 0 -6 4 -7 10 -4 5 3 18 1 28 -4
14 -7 24 -6 38 4 19 15 19 15 0 8 -13 -4 -17 -3 -12 5 4 7 2 12 -3 12 -6 0
-11 -4 -11 -10 0 -5 -5 -10 -11 -10 -6 0 -9 7 -5 15 6 17 6 17 -16 4z"/>
<path d="M8649 7423 c-13 -16 -12 -17 4 -4 9 7 17 15 17 17 0 8 -8 3 -21 -13z"/>
<path d="M8684 7398 l-19 -23 23 19 c21 18 27 26 19 26 -2 0 -12 -10 -23 -22z"/>
<path d="M8625 7380 c-3 -5 -1 -10 4 -10 6 0 11 5 11 10 0 6 -2 10 -4 10 -3 0
-8 -4 -11 -10z"/>
<path d="M8805 7330 c-16 -17 -16 -20 -3 -15 9 4 19 13 22 21 7 19 2 18 -19
-6z"/>
<path d="M8799 7283 c-13 -16 -12 -17 4 -4 16 13 21 21 13 21 -2 0 -10 -8 -17
-17z"/>
<path d="M8886 7243 c-6 -14 -5 -15 5 -6 7 7 10 15 7 18 -3 3 -9 -2 -12 -12z"/>
<path d="M8934 7137 c-41 -49 -50 -61 -35 -53 10 7 12 3 7 -15 -7 -23 -7 -24
9 -4 10 12 12 21 5 23 -8 3 -8 8 0 17 6 8 17 12 25 9 7 -3 16 -1 20 5 3 7 0 8
-9 5 -19 -7 -21 7 -4 24 7 7 10 12 7 12 -3 0 -14 -10 -25 -23z"/>
<path d="M8867 7136 c-9 -24 -9 -28 2 -22 5 4 11 1 13 -5 2 -6 12 0 23 12 l20
22 -22 -5 c-12 -3 -24 -1 -26 5 -2 6 -6 3 -10 -7z"/>
<path d="M9157 6883 c-12 -11 -8 -23 7 -23 8 0 18 4 21 10 4 6 -1 7 -11 3 -12
-4 -15 -3 -10 5 8 13 3 16 -7 5z"/>
<path d="M9456 6565 c-9 -26 -7 -32 5 -12 6 10 9 21 6 23 -2 3 -7 -2 -11 -11z"/>
<path d="M9512 6480 c-6 -11 -12 -22 -12 -24 0 -9 31 1 43 14 9 11 8 11 -7 0
-17 -14 -18 -13 -12 8 9 27 5 28 -12 2z"/>
<path d="M9569 6443 c-13 -16 -12 -17 4 -4 9 7 17 15 17 17 0 8 -8 3 -21 -13z"/>
<path d="M9573 6421 c-27 -22 -28 -27 -9 -34 8 -3 20 2 28 11 12 15 11 16 -4
3 -23 -17 -23 -3 -1 21 21 23 14 23 -14 -1z"/>
<path d="M9619 6343 c-13 -16 -12 -17 4 -4 9 7 17 15 17 17 0 8 -8 3 -21 -13z"/>
<path d="M9555 6330 c3 -5 8 -10 11 -10 2 0 4 5 4 10 0 6 -5 10 -11 10 -5 0
-7 -4 -4 -10z"/>
<path d="M9624 6285 c-4 -11 -22 -33 -38 -48 -21 -20 -24 -25 -10 -18 12 6 24
8 26 5 3 -2 11 9 18 26 12 29 14 30 36 15 22 -14 24 -14 24 0 0 10 -5 13 -12
9 -8 -5 -9 -2 -4 11 5 15 4 16 -8 6 -11 -9 -15 -9 -19 1 -3 9 -7 6 -13 -7z"/>
<path d="M9833 6114 c8 -8 -21 -44 -34 -44 -5 0 -6 7 -3 15 4 8 1 15 -6 15 -6
0 -9 -4 -6 -9 4 -5 0 -12 -6 -14 -10 -4 -10 -6 0 -6 7 -1 10 -6 6 -13 -4 -7
-3 -8 5 -4 8 5 10 -1 6 -23 -4 -24 -1 -33 16 -42 19 -10 21 -9 16 5 -8 21 8
29 32 17 14 -8 22 -6 36 9 22 25 13 26 -11 3 -17 -17 -17 -17 -12 5 6 20 4 22
-10 10 -14 -11 -15 -10 -9 7 7 19 6 19 -11 -1 -9 -11 -23 -19 -30 -16 -8 2 -4
10 10 23 21 17 21 19 3 13 -16 -5 -15 -1 7 19 23 22 25 26 10 32 -9 3 -13 3
-9 -1z m-13 -98 c0 -3 -4 -8 -10 -11 -5 -3 -10 -1 -10 4 0 6 5 11 10 11 6 0
10 -2 10 -4z"/>
<path d="M9845 5990 c3 -5 8 -10 11 -10 2 0 4 5 4 10 0 6 -5 10 -11 10 -5 0
-7 -4 -4 -10z"/>
<path d="M9925 5880 c-8 -13 15 -24 27 -12 6 6 4 11 -6 15 -8 3 -18 2 -21 -3z"/>
<path d="M10206 5701 c-21 -22 -25 -31 -14 -37 7 -4 10 -3 5 1 -4 5 5 21 20
37 15 15 24 28 22 28 -3 0 -18 -13 -33 -29z"/>
<path d="M10098 5709 c-10 -6 -18 -15 -18 -21 0 -6 10 -3 22 8 17 14 20 15 9
2 -16 -21 -6 -39 16 -31 13 5 15 1 9 -23 -6 -23 -5 -27 5 -17 14 14 23 54 11
52 -21 -4 -23 3 -6 23 11 13 13 18 3 11 -9 -8 -19 -9 -25 -3 -5 5 -16 5 -26
-1z"/>
<path d="M10165 5650 c3 -5 11 -10 16 -10 6 0 7 5 4 10 -3 6 -11 10 -16 10 -6
0 -7 -4 -4 -10z"/>
<path d="M10179 5584 c-30 -31 -45 -52 -34 -46 14 7 26 7 39 0 14 -8 17 -8 11
2 -4 7 5 25 21 43 17 19 20 24 7 13 -13 -11 -23 -14 -23 -8 0 6 10 18 22 26
12 9 20 18 17 21 -3 2 -30 -21 -60 -51z m21 -8 c0 -2 -7 -9 -15 -16 -13 -11
-14 -10 -9 4 5 14 24 23 24 12z"/>
<path d="M10174 5608 l-19 -23 23 19 c21 18 27 26 19 26 -2 0 -12 -10 -23 -22z"/>
<path d="M10193 1734 c-56 -19 -415 -203 -428 -218 -5 -7 -19 -16 -30 -20 -10
-4 -78 -40 -150 -80 -71 -41 -188 -103 -260 -138 -71 -36 -166 -85 -210 -110
-98 -56 -127 -71 -187 -99 -27 -13 -48 -27 -48 -31 0 -5 5 -6 10 -3 6 3 10 4
10 0 0 -7 -49 -26 -76 -29 -11 -1 -31 -10 -44 -19 -14 -9 -30 -17 -36 -17 -6
0 -18 -8 -25 -17 -12 -14 -12 -16 0 -8 10 6 12 4 7 -4 -5 -7 -15 -10 -23 -7
-12 5 -60 -18 -73 -35 -3 -4 -16 -9 -30 -11 -14 -2 -24 -8 -23 -15 1 -6 -3
-10 -10 -10 -18 1 -77 -26 -77 -35 0 -4 -4 -8 -10 -8 -13 0 -112 -49 -170 -84
-25 -14 -63 -35 -85 -45 -98 -45 -132 -59 -155 -66 -14 -4 -27 -10 -30 -14
-10 -12 -108 -68 -122 -70 -5 -1 -16 -1 -25 -1 -15 0 -16 -2 -3 -10 12 -8 11
-10 -7 -10 -13 0 -23 -6 -24 -12 0 -7 -4 -4 -9 7 -7 17 -9 18 -9 2 -1 -20 -60
-59 -78 -53 -7 3 -10 -1 -7 -9 4 -8 -5 -15 -26 -20 -17 -4 -34 -13 -37 -21 -3
-8 -11 -14 -19 -14 -8 0 -14 -5 -14 -11 0 -6 7 -8 15 -5 38 15 48 16 25 2 -14
-8 -35 -15 -47 -16 -20 0 -110 -37 -123 -50 -3 -3 -50 -27 -105 -55 -55 -27
-101 -53 -103 -57 -2 -5 -8 -8 -13 -8 -6 0 -35 -11 -65 -25 -30 -14 -59 -25
-64 -25 -6 0 -10 -4 -10 -10 0 -5 -6 -10 -12 -10 -7 0 -44 -17 -83 -37 -38
-20 -80 -41 -92 -47 -13 -6 -23 -15 -23 -19 0 -4 -10 -12 -22 -17 -23 -9 -23
-9 -1 -9 12 -1 23 4 25 10 3 9 9 9 25 0 32 -17 763 -16 763 2 0 7 3 8 8 2 4
-6 58 -12 121 -13 l113 -4 39 41 c29 30 48 41 69 41 17 0 30 4 30 8 0 5 10 14
23 19 12 6 42 28 66 49 29 26 52 38 68 36 13 -2 33 7 50 22 15 14 36 26 46 26
10 0 20 7 24 15 5 15 58 48 78 50 6 0 28 7 50 14 34 12 37 15 20 21 -19 7 -19
8 5 19 48 22 70 38 63 45 -4 3 2 6 13 5 37 -4 64 1 64 12 0 19 26 37 67 48 23
6 44 18 47 26 3 8 12 15 19 15 18 0 75 28 82 41 4 5 15 9 25 9 10 0 28 12 39
26 12 15 21 24 21 20 0 -4 13 2 29 13 16 12 43 21 60 21 35 0 43 19 9 21 -13
1 -3 5 21 10 24 5 54 18 66 29 12 11 33 20 48 20 19 0 25 4 21 15 -4 10 0 15
11 15 9 0 34 14 55 30 21 16 43 30 49 30 6 0 11 5 11 10 0 6 12 16 28 23 15 6
36 22 48 34 11 12 32 25 46 28 14 4 38 20 54 36 15 16 33 29 40 29 6 0 17 7
24 15 7 8 23 15 36 15 15 0 24 6 24 15 0 8 9 15 21 15 11 0 17 4 14 10 -3 5 9
17 28 27 18 10 50 27 70 37 21 11 37 26 37 33 0 7 13 16 30 19 16 4 28 11 27
17 -2 11 5 14 49 16 14 0 23 5 20 10 -4 5 7 12 23 16 16 3 37 15 47 27 11 11
28 24 39 29 11 5 34 18 50 28 17 11 38 20 48 20 9 1 17 6 17 11 0 6 9 10 20
10 19 0 20 7 20 205 0 113 -1 205 -2 205 -2 -1 -22 -8 -45 -16z m6 -19 c-17
-17 -309 -159 -309 -150 0 6 59 36 195 102 107 51 123 58 114 48z m-1069 -570
c-14 -8 -29 -14 -35 -14 -5 0 1 6 15 14 14 8 30 14 35 14 6 0 -1 -6 -15 -14z
m-1130 -600 c0 -2 -10 -9 -22 -15 -22 -11 -22 -10 -4 4 21 17 26 19 26 11z
m-70 -40 c-14 -8 -29 -14 -35 -14 -5 0 1 6 15 14 14 8 30 14 35 14 6 0 -1 -6
-15 -14z"/>
<path d="M9498 883 c7 -3 16 -2 19 1 4 3 -2 6 -13 5 -11 0 -14 -3 -6 -6z"/>
<path d="M9390 810 c0 -5 5 -10 11 -10 5 0 7 5 4 10 -3 6 -8 10 -11 10 -2 0
-4 -4 -4 -10z"/>
<path d="M7868 659 c-25 -10 -79 -36 -120 -57 -40 -22 -90 -45 -110 -52 -35
-11 -52 -30 -27 -30 13 0 167 76 219 108 19 12 42 22 51 22 9 0 22 7 29 15 7
8 11 15 9 14 -2 -1 -25 -9 -51 -20z"/>
<path d="M7488 443 c7 -3 16 -2 19 1 4 3 -2 6 -13 5 -11 0 -14 -3 -6 -6z"/>
<path d="M7362 400 c0 -14 2 -19 5 -12 2 6 2 18 0 25 -3 6 -5 1 -5 -13z"/>
<path d="M1280 200 c0 -5 7 -10 15 -10 8 0 15 5 15 10 0 6 -7 10 -15 10 -8 0
-15 -4 -15 -10z"/>
</g>
</svg>
